<?xml version="1.0" encoding="utf-8"?>
<!-- Generator: Adobe Illustrator 16.0.0, SVG Export Plug-In . SVG Version: 6.00 Build 0)  -->
<!DOCTYPE svg PUBLIC "-//W3C//DTD SVG 1.1//EN" "http://www.w3.org/Graphics/SVG/1.1/DTD/svg11.dtd">
<svg version="1.1" id="Layer_1" xmlns="http://www.w3.org/2000/svg" xmlns:xlink="http://www.w3.org/1999/xlink" x="0px" y="0px"
	 width="400px" height="150px" viewBox="0 0 400 150" enable-background="new 0 0 400 150" xml:space="preserve">
<g>
	<g>
		<path fill="#1D1B1C" d="M38.881,64.317l6.906-32.979h11.271c2.444,0,4.154,0.075,5.129,0.225c1.62,0.225,2.992,0.675,4.117,1.35
			c1.125,0.675,1.98,1.575,2.564,2.699c0.585,1.125,0.877,2.37,0.877,3.734c0,1.83-0.51,3.416-1.53,4.758s-2.595,2.358-4.724,3.048
			c1.695,0.465,3.018,1.293,3.971,2.486c0.952,1.192,1.429,2.539,1.429,4.038c0,1.979-0.563,3.858-1.688,5.635
			c-1.125,1.777-2.677,3.056-4.657,3.835c-1.979,0.78-4.687,1.17-8.121,1.17H38.881z M46.777,59.008h6.546
			c2.745,0,4.585-0.176,5.523-0.529c0.937-0.352,1.687-0.934,2.25-1.743c0.562-0.81,0.843-1.665,0.843-2.564
			c0-1.095-0.405-1.999-1.214-2.711c-0.81-0.712-2.16-1.068-4.049-1.068h-8.099L46.777,59.008z M49.77,44.656h5.174
			c2.325,0,3.997-0.165,5.017-0.495c1.02-0.33,1.785-0.87,2.294-1.62s0.765-1.552,0.765-2.407c0-0.84-0.24-1.53-0.72-2.07
			c-0.48-0.54-1.163-0.9-2.047-1.08c-0.495-0.09-1.687-0.135-3.577-0.135h-5.264L49.77,44.656z"/>
		<path fill="#1D1B1C" d="M72.198,64.317l6.884-32.979h24.453l-1.147,5.511H84.728l-1.575,7.491h17.074l-1.147,5.512H82.006
			l-2.069,8.953h19.189l-1.17,5.512H72.198z"/>
		<path fill="#1D1B1C" d="M12.336,119.604H5.542l5.759-27.468H1.628l1.147-5.512h25.983l-1.147,5.512h-9.538L12.336,119.604z"/>
		<path fill="#1D1B1C" d="M48.87,104.869H36.115l-3.082,14.734h-6.794l6.906-32.979h6.771l-2.654,12.733h12.755l2.677-12.733h6.771
			l-6.884,32.979h-6.793L48.87,104.869z"/>
		<path fill="#1D1B1C" d="M59.398,119.604l6.884-32.979h24.453l-1.147,5.512H71.928l-1.575,7.491h17.074l-1.147,5.512H69.206
			l-2.069,8.953h19.189l-1.17,5.512H59.398z"/>
	</g>
	<g>
		<g>
			<g>
				<path fill="#36833F" d="M153.86,78.808c0.152-1.089-0.624-1.98-1.724-1.98h-27.07c-1.1,0-2.153,0.887-2.34,1.971l-8.554,49.574
					c-0.187,1.084-1.24,1.971-2.34,1.971H99.283c-1.1,0-1.846-0.887-1.658-1.971L115.49,25.363c0.188-1.084,1.242-1.971,2.342-1.971
					h12.494c1.1,0,1.846,0.887,1.658,1.971l-5.782,33.351c-0.188,1.084,0.558,1.971,1.658,1.971h27.07
					c1.1,0,2.152-0.887,2.337-1.971l7.771-45.436c0.185-1.084,1.237-1.971,2.337-1.971h13.321c1.1,0,1.867,0.89,1.705,1.978
					L166.785,118.11c-0.162,1.088-1.195,1.979-2.295,1.979h-14.379c-1.1,0-1.876-0.892-1.724-1.98L153.86,78.808z"/>
				<path fill="none" stroke="#37823F" stroke-miterlimit="10" d="M153.86,78.808c0.152-1.089-0.624-1.98-1.724-1.98h-27.07
					c-1.1,0-2.153,0.887-2.34,1.971l-8.554,49.574c-0.187,1.084-1.24,1.971-2.34,1.971H99.283c-1.1,0-1.846-0.887-1.658-1.971
					L115.49,25.363c0.188-1.084,1.242-1.971,2.342-1.971h12.494c1.1,0,1.846,0.887,1.658,1.971l-5.782,33.351
					c-0.188,1.084,0.558,1.971,1.658,1.971h27.07c1.1,0,2.152-0.887,2.337-1.971l7.771-45.436c0.185-1.084,1.237-1.971,2.337-1.971
					h13.321c1.1,0,1.867,0.89,1.705,1.978L166.785,118.11c-0.162,1.088-1.195,1.979-2.295,1.979h-14.379
					c-1.1,0-1.876-0.892-1.724-1.98L153.86,78.808z"/>
			</g>
			<g>
				<path fill="#36833F" d="M178.081,82.099c0-5.709,0.712-11.728,2.137-18.054c1.863-8.477,4.703-15.834,8.521-22.073
					c3.817-6.236,8.631-11.168,14.438-14.792c5.809-3.624,12.42-5.436,19.837-5.436c9.937,0,17.964,3.711,24.084,11.135
					c6.118,7.423,9.178,17.263,9.178,29.518c0,10.191-1.992,20.054-5.973,29.585c-3.982,9.532-9.389,16.866-16.222,22.007
					c-6.83,5.139-14.556,7.708-23.177,7.708c-7.49,0-13.774-2.041-18.851-6.127c-5.078-4.085-8.676-9.147-10.794-15.187
					C179.14,94.344,178.081,88.248,178.081,82.099z M194.41,81.703c0,6.633,1.679,12.188,5.042,16.671
					c3.359,4.479,7.78,6.72,13.26,6.72c4.456,0,8.74-1.768,12.851-5.304c4.108-3.536,7.506-8.895,10.191-16.078
					c2.685-7.181,4.027-14.176,4.027-20.984c0-7.599-1.698-13.562-5.097-17.889c-3.396-4.326-7.727-6.49-12.985-6.49
					c-8.075,0-14.642,4.525-19.699,13.573C196.939,60.971,194.41,70.897,194.41,81.703z"/>
				<path fill="none" stroke="#37823F" stroke-miterlimit="10" d="M178.081,82.099c0-5.709,0.712-11.728,2.137-18.054
					c1.863-8.477,4.703-15.834,8.521-22.073c3.817-6.236,8.631-11.168,14.438-14.792c5.809-3.624,12.42-5.436,19.837-5.436
					c9.937,0,17.964,3.711,24.084,11.135c6.118,7.423,9.178,17.263,9.178,29.518c0,10.191-1.992,20.054-5.973,29.585
					c-3.982,9.532-9.389,16.866-16.222,22.007c-6.83,5.139-14.556,7.708-23.177,7.708c-7.49,0-13.774-2.041-18.851-6.127
					c-5.078-4.085-8.676-9.147-10.794-15.187C179.14,94.344,178.081,88.248,178.081,82.099z M194.41,81.703
					c0,6.633,1.679,12.188,5.042,16.671c3.359,4.479,7.78,6.72,13.26,6.72c4.456,0,8.74-1.768,12.851-5.304
					c4.108-3.536,7.506-8.895,10.191-16.078c2.685-7.181,4.027-14.176,4.027-20.984c0-7.599-1.698-13.562-5.097-17.889
					c-3.396-4.326-7.727-6.49-12.985-6.49c-8.075,0-14.642,4.525-19.699,13.573C196.939,60.971,194.41,70.897,194.41,81.703z"/>
			</g>
			<g>
				<path fill="#36833F" d="M266.71,128.385c-0.225,1.077-1.31,1.958-2.409,1.958h-12.548c-1.1,0-1.832-0.884-1.628-1.965
					l19.531-103.021c0.204-1.081,1.272-1.965,2.372-1.965h28.658c1.1,0,2.897,0.071,3.994,0.158c0,0,8.407,0.666,11.787,2.313
					c3.379,1.647,6.054,4.371,8.027,8.17c1.973,3.799,2.959,8.334,2.959,13.606c0,4.875-0.785,9.619-2.355,14.232
					c-1.571,4.612-3.499,8.302-5.782,11.069c-2.283,2.768-4.739,4.866-7.37,6.292c-2.63,1.429-6.174,2.516-10.63,3.261
					c-2.595,0.44-7.453,0.66-14.576,0.66h-8.575c-1.1,0-2.185,0.881-2.409,1.958L266.71,128.385z M279.249,65.172
					c-0.189,1.083,0.556,1.97,1.655,1.97h1.097c1.1,0,2.899-0.041,3.998-0.09c0,0,12.559-0.569,15.482-1.886
					c2.922-1.318,5.224-3.427,6.904-6.326c1.679-2.899,2.521-6.083,2.521-9.554c0-2.328-0.43-4.239-1.288-5.732
					c-0.858-1.493-2.063-2.581-3.616-3.261c-1.554-0.681-5.014-1.022-10.385-1.022h-9.835c-1.1,0-2.155,0.887-2.345,1.97
					L279.249,65.172z"/>
				<path fill="none" stroke="#37823F" stroke-miterlimit="10" d="M266.71,128.385c-0.225,1.077-1.31,1.958-2.409,1.958h-12.548
					c-1.1,0-1.832-0.884-1.628-1.965l19.531-103.021c0.204-1.081,1.272-1.965,2.372-1.965h28.658c1.1,0,2.897,0.071,3.994,0.158
					c0,0,8.407,0.666,11.787,2.313c3.379,1.647,6.054,4.371,8.027,8.17c1.973,3.799,2.959,8.334,2.959,13.606
					c0,4.875-0.785,9.619-2.355,14.232c-1.571,4.612-3.499,8.302-5.782,11.069c-2.283,2.768-4.739,4.866-7.37,6.292
					c-2.63,1.429-6.174,2.516-10.63,3.261c-2.595,0.44-7.453,0.66-14.576,0.66h-8.575c-1.1,0-2.185,0.881-2.409,1.958
					L266.71,128.385z M279.249,65.172c-0.189,1.083,0.556,1.97,1.655,1.97h1.097c1.1,0,2.899-0.041,3.998-0.09
					c0,0,12.559-0.569,15.482-1.886c2.922-1.318,5.224-3.427,6.904-6.326c1.679-2.899,2.521-6.083,2.521-9.554
					c0-2.328-0.43-4.239-1.288-5.732c-0.858-1.493-2.063-2.581-3.616-3.261c-1.554-0.681-5.014-1.022-10.385-1.022h-9.835
					c-1.1,0-2.155,0.887-2.345,1.97L279.249,65.172z"/>
			</g>
			<g>
				<path fill="#36833F" d="M323.205,119.984c-1.1,0-1.846-0.887-1.658-1.971l16.086-92.65c0.188-1.084,1.242-1.971,2.342-1.971
					h55.563c1.1,0,1.847,0.887,1.659,1.971l-2.113,12.201c-0.188,1.084-1.241,1.971-2.341,1.971h-39.014
					c-1.1,0-2.155,0.887-2.345,1.97l-3.147,18c-0.189,1.083,0.556,1.97,1.655,1.97h37.591c1.1,0,1.847,0.887,1.659,1.971
					l-2.112,12.2c-0.188,1.084-1.241,1.971-2.341,1.971h-37.591c-1.1,0-2.17,0.884-2.378,1.964l-4.285,22.296
					c-0.208,1.08,0.522,1.964,1.622,1.964h42.742c1.1,0,1.844,0.887,1.652,1.97l-2.154,12.204c-0.191,1.083-1.248,1.97-2.348,1.97
					H323.205z"/>
				<path fill="none" stroke="#37823F" stroke-miterlimit="10" d="M323.205,119.984c-1.1,0-1.846-0.887-1.658-1.971l16.086-92.65
					c0.188-1.084,1.242-1.971,2.342-1.971h55.563c1.1,0,1.847,0.887,1.659,1.971l-2.113,12.201
					c-0.188,1.084-1.241,1.971-2.341,1.971h-39.014c-1.1,0-2.155,0.887-2.345,1.97l-3.147,18c-0.189,1.083,0.556,1.97,1.655,1.97
					h37.591c1.1,0,1.847,0.887,1.659,1.971l-2.112,12.2c-0.188,1.084-1.241,1.971-2.341,1.971h-37.591
					c-1.1,0-2.17,0.884-2.378,1.964l-4.285,22.296c-0.208,1.08,0.522,1.964,1.622,1.964h42.742c1.1,0,1.844,0.887,1.652,1.97
					l-2.154,12.204c-0.191,1.083-1.248,1.97-2.348,1.97H323.205z"/>
			</g>
		</g>
	</g>
</g>
</svg>
